<svg xmlns="http://www.w3.org/2000/svg" xmlns:xlink="http://www.w3.org/1999/xlink" width="42.953" height="44.689" viewBox="0 0 42.953 44.689">
  <defs>
    <linearGradient id="linear-gradient" x1="-0.012" y1="1.089" x2="0.793" y2="0.349" gradientUnits="objectBoundingBox">
      <stop offset="0" stop-color="#0015b6"/>
      <stop offset="1" stop-color="#00ffdf"/>
    </linearGradient>
    <linearGradient id="linear-gradient-2" x1="-1831.472" y1="-0.911" x2="252.289" y2="-2.368" xlink:href="#linear-gradient"/>
    <linearGradient id="linear-gradient-3" y1="0.5" x2="1" y2="0.5" gradientUnits="objectBoundingBox">
      <stop offset="0" stop-color="#08a"/>
      <stop offset="1" stop-color="#08a" stop-opacity="0"/>
    </linearGradient>
    <linearGradient id="linear-gradient-4" x1="-28.057" y1="4.46" x2="-26.339" y2="4.864" gradientUnits="objectBoundingBox">
      <stop offset="0" stop-color="blue"/>
      <stop offset="1" stop-color="aqua"/>
    </linearGradient>
    <linearGradient id="linear-gradient-5" x1="-25.093" y1="4.46" x2="-23.375" y2="4.864" xlink:href="#linear-gradient-4"/>
    <linearGradient id="linear-gradient-6" x1="-31.021" y1="3.881" x2="-29.303" y2="4.285" xlink:href="#linear-gradient-4"/>
    <linearGradient id="linear-gradient-7" x1="-0.455" y1="0.166" x2="1.263" y2="0.57" xlink:href="#linear-gradient-4"/>
  </defs>
  <g id="_300" data-name="300" transform="translate(-18.655 -7.548)">
    <g id="グループ_179312" data-name="グループ 179312">
      <g id="グループ_179311" data-name="グループ 179311" transform="translate(-3.085 7.232)">
        <path id="パス_206140" data-name="パス 206140" d="M37.063,23.011a12.723,12.723,0,0,0-4.8.9,7.862,7.862,0,0,0-1.321.8l-.931-.734c-2.515-1.572-3.622-1.624-7.328-1.05-.8.26-.94.372-.906-.317.077-1.572,2.094-5.692,4.241-7.825A22.484,22.484,0,0,1,40.2,8.105a8.9,8.9,0,0,0,1.717-.3,2.948,2.948,0,0,0,.208-.852c.256-.9.652-1.113,1.11-1.149a.816.816,0,0,1,.667.368,7.945,7.945,0,0,1,.475,1.617,8.441,8.441,0,0,0,1.693.3A22.886,22.886,0,0,1,60.411,14.8c2.14,2.126,4.282,6.06,4.282,7.867,0,.45-.016.455-1.055.162C61,22.085,57.323,22.645,55.757,24l-.808.712a6.47,6.47,0,0,0-1.113-.8,10.521,10.521,0,0,0-3.762-.87,16.923,16.923,0,0,0-6.813,1.486c-3-1.064-4.061-1.458-6.2-1.516Z" fill-rule="evenodd" fill="url(#linear-gradient)"/>
        <path id="パス_206141" data-name="パス 206141" d="M44.045,24.256l-.783.271-.757-.249V38.666m-.043,0h1.68m-1.817.012v3.15c.025,1-1.077,1.565-2.024,1.554a1.937,1.937,0,0,1-1.846-1.649c-.077-.431.049-.932-.447-1.288-.387-.229-1.128-.081-1.267.276a2.149,2.149,0,0,0-.085,1.112,3.924,3.924,0,0,0,1.471,2.521,4.292,4.292,0,0,0,3.381.529,3.331,3.331,0,0,0,1.908-1.232,3.819,3.819,0,0,0,.8-2.711V38.678" fill="#666" fill-rule="evenodd" opacity="0.97"/>
        <path id="パス_206142" data-name="パス 206142" d="M51.64,39.951c0-4.278.006-6.033.012-3.9s.007,5.631,0,7.777-.012.4-.012-3.875Z" fill-rule="evenodd" opacity="0.83" fill="url(#linear-gradient-2)"/>
      </g>
      <path id="パス_206143" data-name="パス 206143" d="M39.74,31.6l.437.16.426-.16.46-.111c.157,5.07.017,8.968,0,14.422h-1.72V31.475Z" fill="#666" fill-rule="evenodd" opacity="0.97"/>
      <path id="パス_206144" data-name="パス 206144" d="M36.944,23.056a12.877,12.877,0,0,0-4.741.97,8.829,8.829,0,0,0-1.258.675l-.359-.193c-2.236-1.693-3.558-2.352-8.012-1.521-.8.261-.835.165-.835-.288,0-1.826,2.135-5.773,4.281-7.915a23.014,23.014,0,0,1,14.4-6.728,5.825,5.825,0,0,0,1.483-.278,2.654,2.654,0,0,0,.26-.877c.13-.736.571-1.1,1.065-1.1s.833.368.962,1.1a2.8,2.8,0,0,0,.231.877,5.383,5.383,0,0,0,1.449.278,23.211,23.211,0,0,1,14.479,6.728c2.14,2.136,4.282,6.089,4.282,7.9,0,.453-.016.457-1.055.163-2.64-.748-6.41-.1-7.976,1.267l-.616.584a8.135,8.135,0,0,0-1.416-.893,10.826,10.826,0,0,0-4.1-.753c-2.154.092-2.617.1-6.215,1.471a13.317,13.317,0,0,0-6.318-1.471Z" transform="translate(-3.085 7.232)" fill-rule="evenodd" fill="url(#linear-gradient-3)"/>
    </g>
    <path id="パス_206145" data-name="パス 206145" d="M92.036-6.65l-.648.4a4.968,4.968,0,0,0-1.172,1.138c-.4.568-.46.843-.252,1.2a1.108,1.108,0,0,0,.646.524c.726.105,1.123-.486,1.276-1.889Z" transform="translate(-47.565 14.198)" fill="url(#linear-gradient-4)"/>
    <path id="パス_206146" data-name="パス 206146" d="M85.545-6.65l-.648.4a4.968,4.968,0,0,0-1.172,1.138c-.4.568-.46.843-.252,1.2a1.108,1.108,0,0,0,.646.524c.726.105,1.123-.486,1.276-1.889Z" transform="translate(-47.565 14.198)" fill="url(#linear-gradient-5)"/>
    <path id="パス_206147" data-name="パス 206147" d="M98.527-4.751l-.648.4a4.993,4.993,0,0,0-1.172,1.139c-.4.567-.46.842-.252,1.2a1.108,1.108,0,0,0,.646.524c.726.105,1.123-.486,1.276-1.89Z" transform="translate(-47.565 14.198)" fill="url(#linear-gradient-6)"/>
    <path id="パス_206148" data-name="パス 206148" d="M31.589,7.447l-.648.4A4.973,4.973,0,0,0,29.769,8.99c-.4.567-.46.842-.252,1.2a1.11,1.11,0,0,0,.646.523c.726.1,1.123-.486,1.276-1.889Z" transform="translate(-0.1 2)" fill="url(#linear-gradient-7)"/>
  </g>
</svg>
