<svg xmlns="http://www.w3.org/2000/svg" xmlns:xlink="http://www.w3.org/1999/xlink" width="46.174" height="49.025" viewBox="0 0 46.174 49.025">
  <defs>
    <linearGradient id="linear-gradient" x1="0.309" y1="0.321" x2="1.04" y2="0.414" gradientUnits="objectBoundingBox">
      <stop offset="0" stop-color="#f9f9f9"/>
      <stop offset="1" stop-color="#a1a1a2"/>
    </linearGradient>
    <linearGradient id="linear-gradient-2" x1="1.835" y1="4.684" x2="3.034" y2="4.684" gradientUnits="objectBoundingBox">
      <stop offset="0" stop-color="#fff"/>
      <stop offset="1" stop-color="#898789"/>
    </linearGradient>
  </defs>
  <g id="_400" data-name="400" transform="translate(-16.869 -5.186)">
    <path id="パス_206133" data-name="パス 206133" d="M38.433,25.215a1.665,1.665,0,0,1-.34-1.093,1.682,1.682,0,0,1,1.713-1.392,1.729,1.729,0,0,1,1.681,1.531A1.738,1.738,0,0,1,38.433,25.215Zm2.11-1.392q0-.437-.473-.437t-.473.437q0,.438.473.438t.472-.438Z" fill="#bd392a"/>
    <path id="パス_206134" data-name="パス 206134" d="M26.725,15.514c-6.48,0-11.949,4.183-11.949,9.345,0,2.1,1.454,4.828,3.092,6.478-4.358,2.571-7.162,6.311-6.992,11.031.2,7.361,7.144,12.881,15.744,12.795S42.14,49.082,42.14,41.719l-.017-.636A13.047,13.047,0,0,0,35.7,30.88a8.3,8.3,0,0,0,2.76-6.021c0-5.161-5.253-9.345-11.734-9.345Z" transform="translate(13.275 -1.053)" stroke="#707070" stroke-linecap="round" stroke-linejoin="round" stroke-width="0.2" opacity="0.98" fill="url(#linear-gradient)"/>
    <path id="パス_206135" data-name="パス 206135" d="M31.066,28.433a1.965,1.965,0,0,0-1.835,1.34,2.167,2.167,0,0,0,.377,1.913,3.907,3.907,0,0,0,1.075.73l.73.422-1.291,2.809a17.486,17.486,0,0,0-1.291,3.408,1.811,1.811,0,0,0,1.11,1.756c1.6.6,2.369-.084,3.888-3.45,1.57-3.48,1.388-3.28,2.742-2.992a26.09,26.09,0,0,0,3.869.248c4.448.01,9.816-1.446,10.555-2.888a1.686,1.686,0,0,0-.841-2.248c-.644-.39-.868-.377-3.392.352a21.579,21.579,0,0,1-8.283.956A11.76,11.76,0,0,1,33.3,29.277a8.112,8.112,0,0,0-2.236-.844Z" fill="#bd392a"/>
    <path id="パス_206136" data-name="パス 206136" d="M17.964,34.285l4,3.518-2.045-4.915M28,41.086,21.966,37.8l-5.052-.452M61.95,33.666l-4,3.519,2.045-4.915M51.4,40.993l6.55-3.81L63,36.733" fill="none" stroke="#502d16" stroke-width="1"/>
    <path id="パス_206137" data-name="パス 206137" d="M38.238,28.522c-.769-.352-1-.584-1-.99,0-.734.506-.843,1.447-.312a3.164,3.164,0,0,0,3.16.013,2.926,2.926,0,0,1,1.13-.435c.623,0,.762.6.257,1.13A4.693,4.693,0,0,1,38.238,28.522Zm-2.222-5.887a1.468,1.468,0,0,1,.629-2.615c1.1,0,1.507,1.875.54,2.5-.607.394-.643.4-1.169.114Zm6.662-.265a1.423,1.423,0,0,1,.081-2.005c.57-.526.69-.534,1.365-.1a1.423,1.423,0,0,1-.7,2.5,1.321,1.321,0,0,1-.75-.4Zm-14.2-5.686c-.774-.715.014-1.7,1.357-1.7a5.7,5.7,0,0,0,1.536-.049c.015-1.07-.031-.656.08-3.257.132-3.088.587-3.64,1.9-4.881a2.811,2.811,0,0,1,1.424-.512,33.3,33.3,0,0,1,5.564-.15c6.767-.1,7.1-.056,8.315,1.412.731.88.392,1.17.472,4.143l.081,3.042,1.08.252c1.21.282,1.988,1.02,1.247,1.705-.408.378-22.65.378-23.058,0Z" fill="#324e5c"/>
    <path id="パス_206138" data-name="パス 206138" d="M24.724,2.515c-2.065.014-4.214-.339-6.19.257a5.555,5.555,0,0,0-2.887,1.75c-.379.5-.943,1.388-.486,1.824.578.552,1.511-.552,2.3-.7a2.807,2.807,0,0,1,1.284-.1,3.422,3.422,0,0,1,1.191.905c.5.455.708,1.509,1.387,1.486,1.012-.038,1.164-1.658,1.891-2.356.3-.286.585-.723,1-.736.472-.016.719.78,1.191.761.747-.03,1.034-1.33,1.784-1.354.714-.023,1.072,1.242,1.784,1.181.428-.034.628-.585.939-.879.38-.362,1.263-.586,1.133-1.092-.261-1.02-2.014-.7-3.062-.854a20.735,20.735,0,0,0-3.258-.093Z" transform="translate(16.487 3.245)" stroke="#707070" stroke-width="1" opacity="0.97" fill="url(#linear-gradient-2)"/>
    <path id="パス_206139" data-name="パス 206139" d="M38.361,25.126a1.809,1.809,0,0,1-.411-1.241A2,2,0,0,1,40.02,22.3a2.041,2.041,0,0,1,2.03,1.74c0,1.519-2.183,2.456-3.69,1.083Zm2.548-1.581q0-.5-.57-.5t-.572.5q0,.5.571.5T40.909,23.545Z" fill="#bd392a"/>
  </g>
</svg>
