<svg id="グループ_179310" data-name="グループ 179310" xmlns="http://www.w3.org/2000/svg" xmlns:xlink="http://www.w3.org/1999/xlink" width="51.389" height="33.785" viewBox="0 0 51.389 33.785">
  <defs>
    <linearGradient id="linear-gradient" x1="1.917" y1="2.53" x2="5.798" y2="2.53" gradientUnits="objectBoundingBox">
      <stop offset="0" stop-color="#f60"/>
      <stop offset="1" stop-color="#f60" stop-opacity="0"/>
    </linearGradient>
    <linearGradient id="linear-gradient-2" x1="1.582" y1="4.025" x2="6.112" y2="1.031" xlink:href="#linear-gradient"/>
    <linearGradient id="linear-gradient-3" x1="6.326" y1="1.873" x2="10.208" y2="1.873" xlink:href="#linear-gradient"/>
    <linearGradient id="linear-gradient-4" x1="12.603" y1="4.329" x2="16.483" y2="4.329" xlink:href="#linear-gradient"/>
    <linearGradient id="linear-gradient-5" x1="1.231" y1="4.35" x2="5.111" y2="4.35" xlink:href="#linear-gradient"/>
    <linearGradient id="linear-gradient-6" x1="1.231" y1="4.328" x2="5.111" y2="4.328" xlink:href="#linear-gradient"/>
    <linearGradient id="linear-gradient-7" x1="14.758" y1="16.432" x2="18.638" y2="16.432" xlink:href="#linear-gradient"/>
    <linearGradient id="linear-gradient-8" x1="14.745" y1="16.432" x2="18.626" y2="16.432" xlink:href="#linear-gradient"/>
    <linearGradient id="linear-gradient-9" x1="-1.173" y1="16.297" x2="2.708" y2="16.297" xlink:href="#linear-gradient"/>
    <linearGradient id="linear-gradient-10" x1="-1.173" y1="16.226" x2="2.708" y2="16.226" xlink:href="#linear-gradient"/>
    <linearGradient id="linear-gradient-11" x1="9.309" y1="21.123" x2="13.191" y2="21.123" xlink:href="#linear-gradient"/>
    <linearGradient id="linear-gradient-13" x1="0.611" y1="-19.617" x2="4.569" y2="-19.617" xlink:href="#linear-gradient"/>
    <linearGradient id="linear-gradient-15" x1="12.586" y1="4.312" x2="16.465" y2="4.312" xlink:href="#linear-gradient"/>
    <linearGradient id="linear-gradient-16" x1="6.307" y1="1.872" x2="10.189" y2="1.872" xlink:href="#linear-gradient"/>
    <linearGradient id="linear-gradient-17" x1="-2.617" y1="9.26" x2="1.264" y2="9.26" xlink:href="#linear-gradient"/>
    <linearGradient id="linear-gradient-18" x1="-2.617" y1="9.26" x2="1.264" y2="9.26" xlink:href="#linear-gradient"/>
    <linearGradient id="linear-gradient-19" x1="18.015" y1="9.308" x2="21.897" y2="9.308" xlink:href="#linear-gradient"/>
    <linearGradient id="linear-gradient-21" x1="0.296" y1="0.797" x2="0.828" y2="-0.072" gradientUnits="objectBoundingBox">
      <stop offset="0" stop-color="#b3b3b3"/>
      <stop offset="1" stop-color="#b3b3b3" stop-opacity="0"/>
    </linearGradient>
  </defs>
  <g id="_101" data-name="101">
    <g id="グループ_179309" data-name="グループ 179309">
      <path id="パス_206112" data-name="パス 206112" d="M32.685,19.285a11.316,11.316,0,1,1-13.342-8.878,11.37,11.37,0,0,1,13.342,8.878Z" transform="translate(-6.196 -5.647)" fill-rule="evenodd" fill="url(#linear-gradient)"/>
      <path id="パス_206113" data-name="パス 206113" d="M32.685,19.285a11.316,11.316,0,1,1-13.342-8.878,11.37,11.37,0,0,1,13.342,8.878Z" transform="translate(-6.196 -5.647)" fill-rule="evenodd" fill="url(#linear-gradient-2)"/>
      <path id="パス_206114" data-name="パス 206114" d="M30.994,7.023s-1.028-.075-1.605-.075H28.26c-.527,0-1.53.126-1.53.126-.176,0-.276-.1-.126-.4L28.21,3.844a.731.731,0,0,1,.426-.354.7.7,0,0,1,.5.051.685.685,0,0,1,.326.328l1.631,2.775c.075.126-.1.606-.1.378Z" transform="translate(-13.296 -3.465)" fill-rule="evenodd" fill="url(#linear-gradient-3)"/>
      <path id="パス_206115" data-name="パス 206115" d="M38.668,11.771s-.752-.707-1.2-1.085l-.852-.757c-.4-.328-1.28-.883-1.28-.883-.125-.1-.125-.253.176-.379l3.011-1.135a.822.822,0,0,1,.552,0,.791.791,0,0,1,.351.353.854.854,0,0,1,.051.5l-.477,3.179C38.968,11.721,38.843,11.9,38.668,11.771Z" transform="translate(-13.296 -3.465)" fill-rule="evenodd" fill="url(#linear-gradient-4)"/>
      <path id="パス_206116" data-name="パス 206116" d="M19.17,11.1s.727-.732,1.153-1.135l.829-.782c.376-.354,1.229-.959,1.229-.959.126-.1.126-.253-.176-.354l-3.06-1.009a.7.7,0,0,0-.552.025.643.643,0,0,0-.327.353.7.7,0,0,0-.024.505l.6,3.153C18.869,11.051,18.995,11.227,19.17,11.1Z" transform="translate(-13.296 -2.884)" fill-rule="evenodd" fill="url(#linear-gradient-5)"/>
      <path id="パス_206117" data-name="パス 206117" d="M19.17,11.2s.727-.732,1.153-1.135l.829-.782c.376-.354,1.229-.959,1.229-.959.126-.1.126-.253-.176-.354L19.145,6.96a.7.7,0,0,0-.552.025.643.643,0,0,0-.327.353.7.7,0,0,0-.024.505l.6,3.153C18.869,11.148,18.995,11.325,19.17,11.2Z" transform="translate(-13.296 -2.982)" fill-rule="evenodd" fill="url(#linear-gradient-6)"/>
      <path id="パス_206118" data-name="パス 206118" d="M40.255,23.653s-.477.908-.778,1.413l-.6,1.009c-.25.428-.9,1.261-.9,1.261-.1.126-.051.277.276.277l3.211.1a.806.806,0,0,0,.527-.2.686.686,0,0,0,.2-.429.791.791,0,0,0-.1-.479l-1.48-2.851c-.075-.151-.226-.278-.351-.1Z" transform="translate(-13.296 -3.014)" fill-rule="evenodd" fill="url(#linear-gradient-7)"/>
      <path id="パス_206119" data-name="パス 206119" d="M40.309,23.653s-.477.908-.778,1.413l-.6,1.009c-.25.428-.9,1.261-.9,1.261-.1.126-.051.277.276.277l3.211.1a.806.806,0,0,0,.527-.2.686.686,0,0,0,.2-.429.79.79,0,0,0-.1-.479l-1.48-2.851c-.075-.151-.226-.278-.351-.1Z" transform="translate(-13.296 -3.014)" fill-rule="evenodd" fill="url(#linear-gradient-8)"/>
      <path id="パス_206120" data-name="パス 206120" d="M17.183,23.7s.426.933.7,1.463l.552,1.009c.251.454.853,1.286.853,1.286.1.151.051.3-.276.3l-3.211-.05a.63.63,0,0,1-.5-.227.579.579,0,0,1-.2-.428.757.757,0,0,1,.126-.479l1.58-2.8C16.882,23.654,17.033,23.528,17.183,23.7Z" transform="translate(-13.296 -3.014)" fill-rule="evenodd" fill="url(#linear-gradient-9)"/>
      <path id="パス_206121" data-name="パス 206121" d="M17.183,24s.426.933.7,1.463l.552,1.009c.251.454.853,1.286.853,1.286.1.151.051.3-.276.3l-3.211-.05a.63.63,0,0,1-.5-.227.579.579,0,0,1-.2-.428.757.757,0,0,1,.126-.479l1.58-2.8c.075-.126.226-.253.376-.076Z" transform="translate(-13.314 -3.31)" fill-rule="evenodd" fill="url(#linear-gradient-10)"/>
      <path id="パス_206122" data-name="パス 206122" d="M34.991,30.029s-.928.429-1.455.631l-1.079.4a12.148,12.148,0,0,1-1.48.428c-.15.051-.2.2.051.4l2.458,2.094a.879.879,0,0,0,.527.177.812.812,0,0,0,.452-.2,1.051,1.051,0,0,0,.2-.454l.577-3.153c.026-.177-.025-.378-.251-.328Z" transform="translate(-13.125 -3.472)" fill-rule="evenodd" fill="url(#linear-gradient-11)"/>
      <path id="パス_206123" data-name="パス 206123" d="M34.991,30.029s-.928.429-1.455.631l-1.079.4a12.148,12.148,0,0,1-1.48.428c-.15.051-.2.2.051.4l2.458,2.094a.879.879,0,0,0,.527.177.812.812,0,0,0,.452-.2,1.051,1.051,0,0,0,.2-.454l.577-3.153c.026-.177-.025-.378-.251-.328Z" transform="translate(-13.125 -3.472)" fill-rule="evenodd" fill="url(#linear-gradient-11)"/>
      <path id="パス_206124" data-name="パス 206124" d="M4.05,4.188s-.9-.482-1.442-.715L1.581,2.984c-.466-.2-1.453-.513-1.453-.513-.172-.061-.19-.188.073-.4L2.773.147A.878.878,0,0,1,3.309,0a.773.773,0,0,1,.438.253.69.69,0,0,1,.174.465L4.293,3.9c.015.178-.045.351-.243.29Z" transform="matrix(-1, 0.029, -0.029, -1, 13.11, 30.604)" fill-rule="evenodd" fill="url(#linear-gradient-13)"/>
      <path id="パス_206125" data-name="パス 206125" d="M4.05,4.188s-.9-.482-1.442-.715L1.581,2.984c-.466-.2-1.453-.513-1.453-.513-.172-.061-.19-.188.073-.4L2.773.147A.878.878,0,0,1,3.309,0a.773.773,0,0,1,.438.253.693.693,0,0,1,.174.465L4.293,3.9c.015.178-.045.351-.243.29Z" transform="matrix(-1, 0.029, -0.029, -1, 13.11, 30.604)" fill-rule="evenodd" fill="url(#linear-gradient-13)"/>
      <path id="パス_206126" data-name="パス 206126" d="M38.741,11.844s-.752-.707-1.2-1.085L36.684,10c-.4-.328-1.28-.883-1.28-.883-.125-.1-.125-.253.176-.379L38.59,7.606a.823.823,0,0,1,.552,0,.791.791,0,0,1,.351.353.854.854,0,0,1,.051.5l-.477,3.179c-.026.151-.151.328-.326.2Z" transform="translate(-13.296 -3.465)" fill-rule="evenodd" fill="url(#linear-gradient-15)"/>
      <path id="パス_206127" data-name="パス 206127" d="M31.082,7.029s-1.028-.075-1.605-.075H28.347c-.527,0-1.53.126-1.53.126-.176,0-.276-.1-.126-.4L28.3,3.85a.731.731,0,0,1,.426-.354.7.7,0,0,1,.5.051.685.685,0,0,1,.326.328l1.631,2.775c.075.126-.1.606-.1.378Z" transform="translate(-13.296 -3.465)" fill-rule="evenodd" fill="url(#linear-gradient-16)"/>
      <path id="パス_206128" data-name="パス 206128" d="M17.117,14.886s-.251,1.009-.351,1.589l-.226,1.135c-.1.505-.176,1.54-.176,1.54,0,.177-.151.252-.4.05L13.53,17.055a.811.811,0,0,1-.251-.5.7.7,0,0,1,.126-.479,1.144,1.144,0,0,1,.4-.278l2.985-1.085C16.942,14.634,17.142,14.659,17.117,14.886Z" transform="translate(-13.272 -3.06)" fill-rule="evenodd" fill="url(#linear-gradient-17)"/>
      <path id="パス_206129" data-name="パス 206129" d="M17.117,14.886s-.251,1.009-.351,1.589l-.226,1.135c-.1.505-.176,1.54-.176,1.54,0,.177-.151.252-.4.05L13.53,17.056a.811.811,0,0,1-.251-.5.7.7,0,0,1,.126-.479,1.144,1.144,0,0,1,.4-.278l2.985-1.085c.151-.076.351-.05.326.177Z" transform="translate(-13.272 -3.06)" fill-rule="evenodd" fill="url(#linear-gradient-18)"/>
      <path id="パス_206130" data-name="パス 206130" d="M40.775,15.292s.251,1.009.351,1.589l.226,1.135A14.965,14.965,0,0,1,41.5,19.58c.026.177.151.227.4.026l2.433-2.119a.683.683,0,0,0,.276-.479.635.635,0,0,0-.125-.479.946.946,0,0,0-.4-.3l-2.96-1.11c-.151-.05-.351-.05-.351.177Z" transform="translate(-13.488 -3.306)" fill-rule="evenodd" fill="url(#linear-gradient-19)"/>
      <path id="パス_206131" data-name="パス 206131" d="M40.775,15.292s.251,1.009.351,1.589l.226,1.135A14.965,14.965,0,0,1,41.5,19.58c.026.177.151.227.4.026l2.433-2.119a.683.683,0,0,0,.276-.479.635.635,0,0,0-.125-.479.946.946,0,0,0-.4-.3l-2.96-1.11c-.151-.05-.351-.05-.351.177Z" transform="translate(-13.488 -3.306)" fill-rule="evenodd" fill="url(#linear-gradient-19)"/>
    </g>
    <path id="パス_206132" data-name="パス 206132" d="M17.83,5.092a4.834,4.834,0,0,0-3.286,1.257A3.719,3.719,0,0,0,13.291,8.7,3.769,3.769,0,0,0,9.73,9.721a3.8,3.8,0,0,0-.417,3.453c-1.169.2-2.053.278-2.788,1.55a4.787,4.787,0,0,0,.228,5.188,3.9,3.9,0,0,0,3.309,1.39l13.011-.01a4.324,4.324,0,0,0,3.609-2.586,6.569,6.569,0,0,0-.138-5.468,4.168,4.168,0,0,0-3.214-2.148,5.553,5.553,0,0,0-1.851-4.446A5.585,5.585,0,0,0,17.83,5.092Z" transform="translate(24.017 12.404)" stroke="#707070" stroke-linejoin="round" stroke-width="0.156" fill="url(#linear-gradient-21)"/>
  </g>
</svg>
